<svg id="图层_1" data-name="图层 1" xmlns="http://www.w3.org/2000/svg" viewBox="0 0 1024 1024"><defs><style>.cls-1{fill:#de379f;}.cls-2{fill:#5ec7fe;}.cls-3{fill:#3a4bc0;}.cls-4{fill:#9c57cb;}.cls-5{fill:#f8bf4a;}.cls-6{fill:#c00;}.cls-7{fill:#feffff;}</style></defs><path class="cls-1" d="M267.57,404c1.61-17.13,14.47-31.15,31.38-31.62,30.08-.83,60.27-.34,90.32-.51,3.47,0,4.51,1.35,4.46,4.65-.14,11.52.36,23.06-.19,34.55-.77,15.68-14.71,28.77-31.7,30.59-30,1-60.06.13-90.08.47-3.24,0-4.77-1.06-4.66-4.5C267.46,426.42,266.57,415.19,267.57,404Z"/><path class="cls-2" d="M268,512.08c27.75,0,55.53,0,83.27-.29,5.34,0,6.72,1.86,6.49,6.83a190.23,190.23,0,0,0,0,24.35c1.82,20.69-13.11,39.13-39,39.44-17,.2-34.08.25-51,.38a1.41,1.41,0,0,1-1.95-.43,1.45,1.45,0,0,1-.23-.68c-.5-20.82-.19-41.63-.11-62.46C265.56,516.64,265.77,514,268,512.08Z"/><path class="cls-3" d="M268,512.08c0,20.56-.13,41.13-.28,61.68,0,2.78.83,5.78-1.31,8.25-2.05,3.73-5.77,3.24-9.05,3.24q-26.31.3-52.67,0c-3.25,0-7,.28-9.11-3.24v-70c2.52-2.37,5.7-2.49,8.85-2.5q27.49-.15,55,0c2.87,0,5.81,0,8.11,2.22Z"/><path class="cls-4" d="M267.59,511.83l-72,.26c-.08-11.24-.34-22.48-.25-33.71.13-21.3,15-36.34,36.43-36.82a242.65,242.65,0,0,1,25.87.1c7.91.67,9.63-2.34,9.34-9.74-.38-9.31-1.11-18.75.56-28.05,0,10.2.44,20.38.1,30.55-.19,5.64,1.95,7,7.26,7,29-.15,57.95,0,86.92.11-8.8,1.72-17.68.6-26.52.68-20.13.21-40.27.29-60.4,0-6-.11-7.44,1.9-7.37,7.6.29,20.69.06,41.34,0,62Z"/><path class="cls-5" d="M195.58,582.06h70.83l1.42.76c0,10.73,0,21.46-.14,32.2-.23,21.66-15.55,36.87-37.34,37-9.74,0-19.39-.14-29.07.1-4.24.1-6.07-1-6-5.63C195.55,625.09,195.52,603.53,195.58,582.06Z"/><path class="cls-6" d="M421,566.6l30.77-1.1-3.24-147.11,93.77,2.39L544,393l-124.31-.86Zm35.5-77,84.74.46-1.29-29.71-84.77,3.24Zm106.88,77,30.77-1.1-3.25-147.11,93.78,2.39L686.35,393,562,392.15Zm35.5-77,84.7.46-1.25-29.71-84.74,3.24Zm106.87,77,30.78-1.1-3.25-147.11L827,420.78,828.73,393l-124.32-.86Zm35.47-77,84.74.46-1.25-29.71-84.78,3.24Z"/><rect class="cls-6" x="419.66" y="589.76" width="196.58" height="42.09"/><path class="cls-7" d="M454,611.89h-14v12.87H436.2V596.37h19.68v3.27H440.07v8.84h14Zm24.06,0h-14v12.87h-3.87V596.37h19.69v3.27H464.12v8.84h14Zm6.18,8.67h4.21v4.2h-4.21Zm28.86-8.67h-14v12.87h-3.87V596.37H515v3.27H499.16v8.84h14Zm24.51,2.31V596.37h3.88v18.3q-.46,10.25-11.65,10.55h0q-10.39-.3-10.85-9.92h0V596.37h3.87V614.2q.17,7.78,7.14,7.91h0q7.62-.14,7.61-7.91Zm14.43-17.83,14.26,23v-23H570v28.39H565.7l-14.42-23h-.14v23h-3.73V596.37Zm35.5,28.39H576.09V596.37h11.65q11.47.63,12,13.8h0q-.63,14.3-12.12,14.59Zm-.46-25.28H580v22h7.45q8.07-.51,8.4-11h0q-.16-10.72-8.7-11Z"/></svg>