<svg id="图层_1" data-name="图层 1" xmlns="http://www.w3.org/2000/svg" viewBox="0 0 1000 1000"><defs><style>.cls-1{fill:#f8bf4a;}.cls-2{fill:#3a4bc0;}.cls-3{fill:#9c57cb;}.cls-4{fill:#de379f;}.cls-5{fill:#5ec7fe;}</style></defs><g id="Logo"><path class="cls-1" d="M220,700H420a0,0,0,0,1,0,0V810a90,90,0,0,1-90,90H230a10,10,0,0,1-10-10V700A0,0,0,0,1,220,700Z"/><rect class="cls-2" x="220" y="500" width="200" height="200"/><path class="cls-3" d="M310,300H410a10,10,0,0,1,10,10V500a0,0,0,0,1,0,0H220a0,0,0,0,1,0,0V390A90,90,0,0,1,310,300Z"/><path class="cls-3" d="M420,310h0a10,10,0,0,0-10-10h0a10,10,0,0,0,10-10h0a10,10,0,0,0,10,10h0A10,10,0,0,0,420,310Z"/><path class="cls-4" d="M510,100H770a10,10,0,0,1,10,10V210a90,90,0,0,1-90,90H430a10,10,0,0,1-10-10V190A90,90,0,0,1,510,100Z"/><path class="cls-5" d="M420,500H670a10,10,0,0,1,10,10V610a90,90,0,0,1-90,90H420a0,0,0,0,1,0,0V500A0,0,0,0,1,420,500Z"/></g></svg>