<svg xmlns="http://www.w3.org/2000/svg" viewBox="0 0 198.53 280.27"><defs><style>.cls-1{fill:#de379f;}.cls-2{fill:#5ec7fe;}.cls-3{fill:#3a4bc0;}.cls-4{fill:#9c57cb;}.cls-5{fill:#f8bf4a;}</style></defs><g id="图层_2" data-name="图层 2"><g id="图层_1-2" data-name="图层 1"><path class="cls-1" d="M72.3,32.12C73.91,15,86.76,1,103.68.5,133.76-.32,164,.16,194,0c3.48,0,4.52,1.35,4.47,4.64-.15,11.53.36,23.07-.2,34.56-.76,15.68-14.7,28.76-31.7,30.58-30,1-60.06.13-90.07.47-3.25,0-4.77-1-4.66-4.49C72.19,54.56,71.29,43.32,72.3,32.12Z"/><path class="cls-2" d="M72.72,140.21c27.76,0,55.53,0,83.27-.29,5.34,0,6.72,1.87,6.5,6.84a190.08,190.08,0,0,0,0,24.34c1.82,20.7-13.12,39.14-39,39.45-17,.19-34.09.24-51,.37a1.41,1.41,0,0,1-2-.42,1.37,1.37,0,0,1-.22-.68c-.5-20.83-.19-41.64-.11-62.46C70.29,144.78,70.5,142.11,72.72,140.21Z"/><path class="cls-3" d="M72.72,140.21c0,20.57-.13,41.14-.27,61.69,0,2.77.82,5.78-1.32,8.24-2,3.74-5.76,3.25-9,3.25q-26.31.29-52.67,0c-3.25,0-7,.28-9.11-3.25v-70c2.52-2.37,5.7-2.48,8.85-2.5,18.32-.09,36.67-.13,55,0,2.87,0,5.81,0,8.12,2.23Z"/><path class="cls-4" d="M72.32,140l-72,.26C.26,129,0,117.75.1,106.52c.13-21.3,15-36.35,36.42-36.82a240.24,240.24,0,0,1,25.88.1c7.9.66,9.62-2.34,9.33-9.74-.37-9.32-1.1-18.75.57-28.05,0,10.19.44,20.37.1,30.55-.2,5.63,1.95,7,7.25,7,29-.14,57.95,0,86.93.12-8.8,1.72-17.68.6-26.53.68-20.12.21-40.27.29-60.4,0-6-.12-7.43,1.9-7.37,7.59.3,20.7.07,41.35,0,62Z"/><path class="cls-5" d="M.31,210.19H71.13l1.43.77c0,10.72,0,21.45-.15,32.2-.22,21.65-15.55,36.86-37.33,37-9.74,0-19.4-.15-29.07.1-4.24.09-6.07-1-6-5.64C.28,253.22.25,231.67.31,210.19Z"/></g></g></svg>