<svg id="图层_1" data-name="图层 1" xmlns="http://www.w3.org/2000/svg" viewBox="0 0 1000 1000"><defs><style>.cls-1{fill:#c00;}.cls-2{fill:#feffff;}.cls-3{fill:#f8bf4a;}.cls-4{fill:#3a4bc0;}.cls-5{fill:#9c57cb;}.cls-6{fill:#de379f;}.cls-7{fill:#5ec7fe;}</style></defs><g id="Title"><path class="cls-1" d="M402.51,554.6l30.77-1.1L430,406.39l93.77,2.39L525.53,381l-124.31-.86Zm35.5-77,84.74.46-1.29-29.71-84.77,3.24Zm106.88,77,30.77-1.1-3.24-147.11,93.77,2.39L667.91,381l-124.31-.86Zm35.5-77,84.71.46-1.26-29.71-84.74,3.24Zm106.88,77L718,553.5,714.8,406.39l93.77,2.39L810.29,381,686,380.15Zm35.47-77,84.74.46-1.26-29.71-84.77,3.24Z"/><rect class="cls-1" x="401.22" y="577.76" width="196.58" height="42.09"/><path class="cls-2" d="M435.59,599.89h-14v12.87h-3.87V584.37h19.69v3.27H421.63v8.84h14Zm24.06,0h-14v12.87h-3.87V584.37H461.5v3.27H445.68v8.84h14Zm6.18,8.67H470v4.2h-4.21Zm28.86-8.67h-14v12.87h-3.87V584.37h19.69v3.27H480.72v8.84h14Zm24.52,2.31V584.37h3.87v18.3q-.47,10.25-11.65,10.55h0q-10.4-.3-10.85-9.92h0V584.37h3.87V602.2q.17,7.78,7.15,7.91h0q7.6-.14,7.61-7.91Zm14.42-17.83,14.26,23v-23h3.71v28.39h-4.33l-14.43-23h-.13v23H529V584.37Zm35.51,28.39H557.65V584.37H569.3q11.49.63,12,13.8h0q-.63,14.3-12.11,14.59Zm-.47-25.28h-7.14v22H569q8.07-.51,8.41-11h0q-.17-10.72-8.71-11Z"/></g><g id="Logo"><path class="cls-3" d="M189.71,565h65a0,0,0,0,1,0,0v35.75A29.25,29.25,0,0,1,225.46,630H193a3.25,3.25,0,0,1-3.25-3.25V565A0,0,0,0,1,189.71,565Z"/><rect class="cls-4" x="189.71" y="500" width="65" height="65"/><path class="cls-5" d="M219,435h32.5a3.25,3.25,0,0,1,3.25,3.25V500a0,0,0,0,1,0,0h-65a0,0,0,0,1,0,0V464.25A29.25,29.25,0,0,1,219,435Z"/><rect class="cls-5" x="251.46" y="431.75" width="6.5" height="6.5" rx="3.25"/><path class="cls-6" d="M284,370h84.5a3.25,3.25,0,0,1,3.25,3.25v32.5A29.25,29.25,0,0,1,342.46,435H258a3.25,3.25,0,0,1-3.25-3.25v-32.5A29.25,29.25,0,0,1,284,370Z"/><path class="cls-7" d="M254.71,500H336a3.25,3.25,0,0,1,3.25,3.25v32.5A29.25,29.25,0,0,1,310,565H254.71a0,0,0,0,1,0,0V500A0,0,0,0,1,254.71,500Z"/></g></svg>